<?xml version="1.0" encoding="iso-8859-1"?>
<!-- Generator: Adobe Illustrator 19.0.0, SVG Export Plug-In . SVG Version: 6.00 Build 0)  -->
<svg version="1.1" id="Layer_1" xmlns="http://www.w3.org/2000/svg" xmlns:xlink="http://www.w3.org/1999/xlink" x="0px" y="0px"
	 viewBox="0 0 512 512" style="enable-background:new 0 0 512 512;" xml:space="preserve">
<path style="fill:#FFB655;" d="M279.273,47.079C271.67,45.987,263.902,45.41,256,45.41c-7.902,0-15.67,0.577-23.273,1.669
	C153.885,58.407,93.091,126.391,93.091,208.317v202.836h23.273h23.273h69.818H256h46.545h69.818h23.273h23.273V208.317
	C418.909,126.391,358.115,58.407,279.273,47.079z"/>
<path style="fill:#806749;" d="M256,7.759c-12.853,0-23.273,10.42-23.273,23.273v16.047c7.602-1.092,15.371-1.669,23.273-1.669
	c7.902,0,15.67,0.577,23.273,1.669V31.032C279.273,18.179,268.853,7.759,256,7.759z"/>
<path style="fill:#A78966;" d="M372.364,411.153h-69.818H256h-46.545h-69.818h-23.273H93.091h-7.758
	c-12.853,0-23.273,10.42-23.273,23.273c0,12.853,10.42,23.273,23.273,23.273h31.03h73.821c9.609,27.086,35.475,46.544,65.815,46.544
	s56.207-19.458,65.815-46.544h73.821h31.03c12.853,0,23.273-10.42,23.273-23.273c0-12.853-10.42-23.273-23.273-23.273h-7.758
	h-23.273H372.364z"/>
<path style="fill:#6E76E5;" d="M421.863,13.309c-9.787-8.33-24.475-7.152-32.807,2.636c-8.332,9.787-7.151,24.475,2.634,32.807
	c46.877,39.907,73.764,98.067,73.764,159.567c0,12.853,10.42,23.273,23.273,23.273S512,221.172,512,208.319
	C512,133.153,479.147,62.075,421.863,13.309z"/>
<path style="fill:#424EDE;" d="M90.137,13.312C32.853,62.078,0,133.154,0,208.319c0,12.853,10.42,23.273,23.273,23.273
	s23.273-10.42,23.273-23.273c0-61.499,26.886-119.658,73.764-159.566c9.787-8.332,10.966-23.02,2.634-32.808
	C114.609,6.158,99.924,4.98,90.137,13.312z"/>
<path style="fill:#EE8700;" d="M139.636,411.153h69.818H256V45.41c-7.902,0-15.67,0.577-23.273,1.669
	C153.885,58.407,93.091,126.391,93.091,208.317v202.836h23.273L139.636,411.153L139.636,411.153z"/>
<path style="fill:#806749;" d="M209.455,411.153h-69.818h-23.273H93.091h-7.758c-12.853,0-23.273,10.42-23.273,23.273
	c0,12.853,10.42,23.273,23.273,23.273h31.03h73.821c9.48,26.728,34.797,46.013,64.616,46.521v-93.066H209.455z"/>
<g>
</g>
<g>
</g>
<g>
</g>
<g>
</g>
<g>
</g>
<g>
</g>
<g>
</g>
<g>
</g>
<g>
</g>
<g>
</g>
<g>
</g>
<g>
</g>
<g>
</g>
<g>
</g>
<g>
</g>
</svg>
