<?xml version="1.0" ?><svg width="24px" height="24px" viewBox="0 0 24 24" xmlns="http://www.w3.org/2000/svg"><defs><style>.cls-1{fill:#ccc;}.cls-2{fill:#eaeaea;}.cls-3{fill:#b24040;}.cls-4{fill:#ce5959;}.cls-5{fill:#6c2e7c;}</style></defs><g id="Icons"><path class="cls-1" d="M6,8v8H4a2.006,2.006,0,0,1-2-2V10a1.679,1.679,0,0,1,.07-.5A2,2,0,0,1,4,8Z"/><path class="cls-2" d="M6,8v3H4A2,2,0,0,1,2.07,9.5,2,2,0,0,1,4,8Z"/><path class="cls-3" d="M18,3V21a2,2,0,0,1-3.2,1.6L6,16V8l8.8-6.6A2,2,0,0,1,18,3Z"/><path class="cls-4" d="M18,3V16a2,2,0,0,1-3.2,1.6L6,11V8l8.8-6.6A2,2,0,0,1,18,3Z"/><path class="cls-2" d="M18,9h1a3,3,0,0,1,3,3v0a3,3,0,0,1-3,3H18a0,0,0,0,1,0,0V9A0,0,0,0,1,18,9Z"/></g><g data-name="Layer 4" id="Layer_4"><path class="cls-5" d="M17.342.317A2.983,2.983,0,0,0,14.2.6L5.667,7H4a3,3,0,0,0-3,3v4a3,3,0,0,0,3,3H5.667L14.2,23.4A3,3,0,0,0,19,21V16a4,4,0,0,0,0-8V3A2.984,2.984,0,0,0,17.342.317ZM3,14V10A1,1,0,0,1,4,9H5v6H4A1,1,0,0,1,3,14Zm14,7a1,1,0,0,1-1.6.8L7,15.5v-7l8.4-6.3A1,1,0,0,1,17,3V21Zm4-9a2,2,0,0,1-2,2V10A2,2,0,0,1,21,12Z"/></g></svg>