<svg width="24px" height="24px" viewBox="0 0 24 24" xmlns="http://www.w3.org/2000/svg">
  <path fill-rule="evenodd" d="M19,2 C20.6568542,2 22,3.34314575 22,5 L22,19 C22,20.6568542 20.6568542,22 19,22 L5,22 C3.34314575,22 2,20.6568542 2,19 L2,5 C2,3.34314575 3.34314575,2 5,2 L19,2 Z M4,19 C4,19.5522847 4.44771525,20 5,20 L19,20 C19.5522847,20 20,19.5522847 20,19 L20,14 L16.8999819,14 C16.4511887,16.2109203 14.5435495,17.8920888 12.2255667,17.9950027 L12,18 C9.65663452,18 7.68978985,16.3879228 7.14796866,14.2122711 L7.10001812,14 L4,14 L4,19 Z M19,4 L5,4 C4.44771525,4 4,4.44771525 4,5 L4,12 L8,12 C8.51283584,12 8.93550716,12.3860402 8.99327227,12.8833789 L9,13 C9,14.6568542 10.3431458,16 12,16 C13.5976809,16 14.9036609,14.75108 14.9949073,13.1762728 L15.0067277,12.8833789 C15.0600494,12.424297 15.424297,12.0600494 15.8833789,12.0067277 L16,12 L20,12 L20,5 C20,4.44771525 19.5522847,4 19,4 Z"/>
</svg>
