<?xml version="1.0" encoding="iso-8859-1"?>
<!-- Generator: Adobe Illustrator 19.0.0, SVG Export Plug-In . SVG Version: 6.00 Build 0)  -->
<svg version="1.1" id="Layer_1" xmlns="http://www.w3.org/2000/svg" xmlns:xlink="http://www.w3.org/1999/xlink" x="0px" y="0px"
	 viewBox="0 0 504 504" style="enable-background:new 0 0 504 504;" xml:space="preserve">
<circle style="fill:#324A5E;" cx="252" cy="252" r="252"/>
<g>
	<polygon style="fill:#FFD05B;" points="365.2,171.2 298.4,123.6 252,90.4 205.6,123.6 138.8,171.2 100.4,198.8 138.8,232 
		252,329.2 365.2,232 403.6,198.8 	"/>
	<polygon style="fill:#FFD05B;" points="94.4,214 94.4,394.8 200,304.4 	"/>
	<polygon style="fill:#FFD05B;" points="409.6,394.8 409.6,214 304,304.4 	"/>
	<polygon style="fill:#FFD05B;" points="292.4,314.4 252,349.2 211.6,314.4 105.6,405.6 398.4,405.6 	"/>
</g>
<polygon style="fill:#F9B54C;" points="252,349.2 292.4,314.4 398.4,405.6 409.6,405.6 409.6,394.8 304,304.4 409.6,214 
	409.6,203.6 403.6,198.8 252,329.2 100.4,198.8 94.4,203.6 94.4,214 200,304.4 94.4,394.8 94.4,405.6 105.6,405.6 211.6,314.4 "/>
<polygon style="fill:#FFFFFF;" points="138.8,123.6 138.8,232 252,329.2 365.2,232 365.2,123.6 "/>
<path style="fill:#F1543F;" d="M278.8,152.4c-12.4,0-22.8,6.8-28.4,16.8c-5.6-10-16.4-16.8-28.4-16.8c-18,0-32.4,14.4-32.4,32.4
	c0,25.2,61.2,80.8,61.2,80.8s61.2-53.2,61.2-80.8C311.6,166.8,296.8,152.4,278.8,152.4z"/>
<g>
</g>
<g>
</g>
<g>
</g>
<g>
</g>
<g>
</g>
<g>
</g>
<g>
</g>
<g>
</g>
<g>
</g>
<g>
</g>
<g>
</g>
<g>
</g>
<g>
</g>
<g>
</g>
<g>
</g>
</svg>
