<?xml version="1.0" encoding="iso-8859-1"?>
<!-- Generator: Adobe Illustrator 19.0.0, SVG Export Plug-In . SVG Version: 6.00 Build 0)  -->
<svg version="1.1" id="Layer_1" xmlns="http://www.w3.org/2000/svg" xmlns:xlink="http://www.w3.org/1999/xlink" x="0px" y="0px"
	 viewBox="0 0 512 512" style="enable-background:new 0 0 512 512;" xml:space="preserve">
<path style="fill:#4CDBC4;" d="M494.933,512h-117.78c-13.129,0-21.336-14.245-14.781-25.599c22.126-38.329-5.475-86.84-50.152-86.84
	c-44.622,0-72.305,48.466-50.153,86.84c6.565,11.37-1.673,25.599-14.781,25.599H129.506c-9.425,0-17.067-7.641-17.067-17.067
	v-92.886C57.291,414.735,0,373.402,0,312.22c0-61.161,57.291-102.531,112.44-89.828v-92.887c0-9.425,7.641-17.067,17.067-17.067
	h92.893C209.665,57.258,251.079,0,312.22,0c61.133,0,102.556,57.254,89.82,112.439h36.673c40.41,0,73.287,32.877,73.287,73.287
	v309.208C512,504.359,504.359,512,494.933,512z"/>
<path style="fill:#5AC2AD;" d="M438.713,112.439h-36.673C414.776,57.254,373.353,0,312.22,0v399.561
	c44.677,0,72.278,48.51,50.152,86.84C355.818,497.755,364.024,512,377.153,512h117.78c9.425,0,17.067-7.641,17.067-17.067V185.725
	C512,145.316,479.123,112.439,438.713,112.439z"/>
<g>
</g>
<g>
</g>
<g>
</g>
<g>
</g>
<g>
</g>
<g>
</g>
<g>
</g>
<g>
</g>
<g>
</g>
<g>
</g>
<g>
</g>
<g>
</g>
<g>
</g>
<g>
</g>
<g>
</g>
</svg>
