<?xml version="1.0" encoding="iso-8859-1"?>
<!-- Generator: Adobe Illustrator 19.0.0, SVG Export Plug-In . SVG Version: 6.00 Build 0)  -->
<svg version="1.1" id="Layer_1" xmlns="http://www.w3.org/2000/svg" xmlns:xlink="http://www.w3.org/1999/xlink" x="0px" y="0px"
	 viewBox="0 0 511.999 511.999" style="enable-background:new 0 0 511.999 511.999;" xml:space="preserve">
<path style="fill:#84DBFF;" d="M495.644,507.173H377.523c-6.175,0-11.823-3.481-14.596-8.998l-59.053-117.418
	c-2.323-4.619-2.323-10.064,0-14.683l59.053-117.418c6.028-11.988,23.177-11.966,29.194,0l118.121,234.836
	C515.695,494.336,507.801,507.173,495.644,507.173z"/>
<path style="fill:#F2F2F2;" d="M86.178,315.648l96.163-191.193c2.774-5.516,8.421-8.998,14.597-8.998s11.823,3.481,14.597,8.998
	l90.291,179.515c6.913,13.744-7.382,28.597-21.384,22.205l-65.382-29.853L106.666,338.23
	C92.791,343.592,79.45,329.022,86.178,315.648z"/>
<path style="fill:#CDD6E0;" d="M301.826,303.971l-90.291-179.515c-2.774-5.516-8.421-8.998-14.597-8.998v187.871l18.121-7.006
	l65.382,29.853C294.444,332.568,308.738,317.714,301.826,303.971z"/>
<path style="fill:#84DBFF;" d="M377.521,507.177H16.355c-12.162,0-20.05-12.841-14.597-23.681l84.42-167.849
	c1.821-3.622,4.925-6.437,8.705-7.898l114.811-44.389c4.103-1.587,8.675-1.451,12.679,0.377l71.438,32.619
	c3.419,1.503,6.287,4.16,8.025,7.615l90.283,179.526C397.58,494.36,389.658,507.177,377.521,507.177z"/>
<path style="fill:#54C9EB;" d="M510.24,483.491L392.119,248.654c-3.01-5.985-8.803-8.981-14.597-8.982v214.801l-75.686-150.502
	c-1.737-3.455-4.607-6.112-8.025-7.615l-71.438-32.619c-4.004-1.828-8.576-1.963-12.679-0.377l-12.756,4.931v238.885h180.583
	c0.049,0,0.096-0.004,0.145-0.004h117.977C507.801,507.173,515.695,494.336,510.24,483.491z"/>
<path style="fill:#40596B;" d="M196.939,148.131c-9.024,0-16.339-7.316-16.339-16.339V21.162c0-9.024,7.316-16.339,16.339-16.339
	s16.339,7.316,16.339,16.339v110.63C213.278,140.815,205.963,148.131,196.939,148.131z"/>
<path style="fill:#364C5C;" d="M196.939,4.823L196.939,4.823v143.308l0,0c9.024,0,16.339-7.316,16.339-16.339V21.162
	C213.278,12.138,205.963,4.823,196.939,4.823z"/>
<path style="fill:#FF7058;" d="M297.607,102.322H196.939c-9.024,0-16.339-7.316-16.339-16.339V21.162
	c0-9.024,7.316-16.339,16.339-16.339h100.668c9.024,0,16.339,7.316,16.339,16.339v64.819
	C313.946,95.006,306.631,102.322,297.607,102.322z"/>
<path style="fill:#F1543F;" d="M297.607,4.823H196.939l0,0v97.498l0,0h100.668c9.024,0,16.339-7.316,16.339-16.339V21.162
	C313.946,12.138,306.631,4.823,297.607,4.823z"/>
<g>
</g>
<g>
</g>
<g>
</g>
<g>
</g>
<g>
</g>
<g>
</g>
<g>
</g>
<g>
</g>
<g>
</g>
<g>
</g>
<g>
</g>
<g>
</g>
<g>
</g>
<g>
</g>
<g>
</g>
</svg>
