<?xml version="1.0" encoding="iso-8859-1"?>
<!-- Generator: Adobe Illustrator 19.0.0, SVG Export Plug-In . SVG Version: 6.00 Build 0)  -->
<svg version="1.1" id="Layer_1" xmlns="http://www.w3.org/2000/svg" xmlns:xlink="http://www.w3.org/1999/xlink" x="0px" y="0px"
	 viewBox="0 0 504.544 504.544" style="enable-background:new 0 0 504.544 504.544;" xml:space="preserve">
<g>
	<polygon style="fill:#FFC52F;" points="71.744,2.222 87.744,51.022 138.944,51.022 97.344,81.422 113.344,130.222 71.744,100.222 
		30.544,130.622 46.144,81.422 4.944,51.022 56.144,51.022 	"/>
	<polygon style="fill:#FFC52F;" points="71.744,186.222 87.744,235.022 138.944,235.022 97.344,265.822 113.344,314.622 
		71.744,284.622 30.544,315.022 46.144,265.422 4.944,235.022 56.144,235.022 	"/>
	<polygon style="fill:#FFC52F;" points="71.744,370.222 87.744,419.022 138.944,419.022 97.344,449.822 113.344,499.022 
		71.744,469.022 30.544,499.422 46.144,449.822 4.944,419.022 56.144,419.022 	"/>
</g>
<path d="M368.544,65.022h-196c-2.4,0-4-1.6-4-4s1.6-4,4-4h196c2.4,0,4,1.6,4,4S370.944,65.022,368.544,65.022z"/>
<path d="M500.544,97.022h-172c-2.4,0-4-1.6-4-4s1.6-4,4-4h172c2.4,0,4,1.6,4,4S502.944,97.022,500.544,97.022z"/>
<path d="M284.544,97.022h-112c-2.4,0-4-1.6-4-4s1.6-4,4-4h112c2.4,0,4,1.6,4,4S286.944,97.022,284.544,97.022z"/>
<path d="M316.544,245.022h-144c-2.4,0-4-1.6-4-4s1.6-4,4-4h144c2.4,0,4,1.6,4,4S318.944,245.022,316.544,245.022z"/>
<path d="M404.544,245.022h-48c-2.4,0-4-1.6-4-4s1.6-4,4-4h48c2.4,0,4,1.6,4,4S406.944,245.022,404.544,245.022z"/>
<path d="M500.544,277.022h-236c-2.4,0-4-1.6-4-4s1.6-4,4-4h236c2.4,0,4,1.6,4,4S502.944,277.022,500.544,277.022z"/>
<path d="M220.544,277.022h-48c-2.4,0-4-1.6-4-4s1.6-4,4-4h48c2.4,0,4,1.6,4,4S222.944,277.022,220.544,277.022z"/>
<path d="M368.544,429.022h-196c-2.4,0-4-1.6-4-4s1.6-4,4-4h196c2.4,0,4,1.6,4,4S370.944,429.022,368.544,429.022z"/>
<path d="M500.544,461.022h-172c-2.4,0-4-1.6-4-4s1.6-4,4-4h172c2.4,0,4,1.6,4,4S502.944,461.022,500.544,461.022z"/>
<path d="M284.544,461.022h-112c-2.4,0-4-1.6-4-4s1.6-4,4-4h112c2.4,0,4,1.6,4,4S286.944,461.022,284.544,461.022z"/>
<path d="M113.344,135.022c-0.8,0-1.6-0.4-2.4-0.8l-39.2-28.4l-39.2,28.4c-1.6,1.2-3.2,1.2-4.8,0s-2-2.8-1.6-4.4l14.8-45.2
	l-39.2-27.6c-1.6-1.2-2-2.8-1.6-4.4s2-2.8,4-2.8h48.4l14.8-46c0.4-1.6,2-2.8,4-2.8s3.2,1.2,4,2.8l14.8,46h48.4c1.6,0,3.2,1.2,4,2.8
	c0.4,1.6,0,3.6-1.6,4.4l-39.2,27.6l14.8,45.6c0.4,1.6,0,3.6-1.6,4.4C114.944,134.622,114.144,135.022,113.344,135.022z
	 M71.744,96.622c0.8,0,1.6,0.4,2.4,0.8l31.6,22.8l-12-36.4c-0.4-1.6,0-3.6,1.6-4.4l31.2-22h-38.8c-1.6,0-3.2-1.2-4-2.8l-12-37.2
	l-12,37.2c-0.4,1.6-2,2.8-4,2.8h-38.8l31.2,22c1.6,1.2,2,2.8,1.6,4.4l-12,36.4l31.6-22.8C70.144,96.622,70.944,96.622,71.744,96.622
	z"/>
<path d="M113.344,319.022c-0.8,0-1.6-0.4-2.4-0.8l-39.2-28.4l-39.2,28.4c-1.6,1.2-3.2,1.2-4.8,0s-2-2.8-1.6-4.4l14.8-45.6l-39.2-28
	c-1.6-1.2-2-2.8-1.6-4.4s2-2.8,4-2.8h48.4l14.8-46c0.4-1.6,2-2.8,4-2.8s3.2,1.2,4,2.8l14.8,46h48.4c1.6,0,3.2,1.2,4,2.8
	c0.4,1.6,0,3.6-1.6,4.4l-39.2,28l14.8,45.6c0.4,1.6,0,3.6-1.6,4.4C114.944,319.022,114.144,319.022,113.344,319.022z
	 M71.744,281.022c0.8,0,1.6,0.4,2.4,0.8l31.6,22.8l-12-36.8c-0.4-1.6,0-3.6,1.6-4.4l31.2-22.4h-38.8c-1.6,0-3.2-1.2-4-2.8l-12-37.2
	l-12,37.2c-0.4,1.6-2,2.8-4,2.8h-38.8l31.2,22.4c1.6,1.2,2,2.8,1.6,4.4l-12,36.4l31.6-22.8
	C70.144,281.022,70.944,281.022,71.744,281.022z"/>
<path d="M113.344,503.422c-0.8,0-1.6-0.4-2.4-0.8l-39.2-28.4l-39.2,28.4c-1.6,1.2-3.2,1.2-4.8,0s-2-2.8-1.6-4.4l14.8-45.6l-39.2-28
	c-1.6-1.2-2-2.8-1.6-4.4s2-2.8,4-2.8h48.4l14.8-46c0.4-1.6,2-2.8,4-2.8s3.2,1.2,4,2.8l14.8,46h48.4c1.6,0,3.2,1.2,4,2.8
	s0,3.6-1.6,4.4l-39.2,28l14.8,46c0.4,1.6,0,3.6-1.6,4.4C114.944,503.422,114.144,503.422,113.344,503.422z M71.744,465.422
	c0.8,0,1.6,0.4,2.4,0.8l31.6,22.8l-12-36.8c-0.4-1.6,0-3.6,1.6-4.4l31.6-22.8h-38.8c-1.6,0-3.2-1.2-4-2.8l-12-37.2l-12,37.2
	c-0.4,1.6-2,2.8-4,2.8h-38.8l31.6,22.8c1.6,1.2,2,2.8,1.6,4.4l-12,36.8l31.6-22.8C70.144,465.422,70.944,465.422,71.744,465.422z"/>
<g>
</g>
<g>
</g>
<g>
</g>
<g>
</g>
<g>
</g>
<g>
</g>
<g>
</g>
<g>
</g>
<g>
</g>
<g>
</g>
<g>
</g>
<g>
</g>
<g>
</g>
<g>
</g>
<g>
</g>
</svg>
