<?xml version="1.0" encoding="iso-8859-1"?>
<!-- Generator: Adobe Illustrator 19.0.0, SVG Export Plug-In . SVG Version: 6.00 Build 0)  -->
<svg version="1.1" id="Layer_1" xmlns="http://www.w3.org/2000/svg" xmlns:xlink="http://www.w3.org/1999/xlink" x="0px" y="0px"
	 viewBox="0 0 512 512" style="enable-background:new 0 0 512 512;" xml:space="preserve">
<path style="fill:#00A8E1;" d="M512,394.527c0,16.467-13.473,29.941-29.941,29.941H29.941C13.473,424.468,0,410.995,0,394.527
	V117.473c0-16.467,13.473-29.941,29.941-29.941h452.119c16.467,0,29.941,13.473,29.941,29.941V394.527z"/>
<circle style="fill:#FFFFFF;" cx="256.005" cy="220.878" r="94.613"/>
<path style="fill:#0071CE;" d="M218.294,181.361c0-11.992,8.497-16.897,18.884-10.903l68.436,39.512
	c10.386,5.997,10.386,15.81,0,21.805l-68.436,39.512c-10.387,5.995-18.884,1.089-18.884-10.903V181.361z"/>
<path style="fill:#333E48;" d="M0,353.008v41.519c0,16.467,13.473,29.941,29.941,29.941h452.119
	c16.467,0,29.941-13.473,29.941-29.941v-41.519H0z"/>
<rect y="344.03" style="fill:#FF9E16;" width="511.998" height="17.964"/>
<rect x="86.936" y="326.258" style="fill:#FFFFFF;" width="17.964" height="53.493"/>
<g>
</g>
<g>
</g>
<g>
</g>
<g>
</g>
<g>
</g>
<g>
</g>
<g>
</g>
<g>
</g>
<g>
</g>
<g>
</g>
<g>
</g>
<g>
</g>
<g>
</g>
<g>
</g>
<g>
</g>
</svg>
