<?xml version="1.0" encoding="iso-8859-1"?>
<!-- Generator: Adobe Illustrator 19.0.0, SVG Export Plug-In . SVG Version: 6.00 Build 0)  -->
<svg version="1.1" id="Layer_1" xmlns="http://www.w3.org/2000/svg" xmlns:xlink="http://www.w3.org/1999/xlink" x="0px" y="0px"
	 viewBox="0 0 512.001 512.001" style="enable-background:new 0 0 512.001 512.001;" xml:space="preserve">
<path style="fill:#CAD1D8;" d="M24,16h464c13.254,0,24,10.745,24,24v432c0,13.254-10.745,24-24,24H24C10.745,496,0,485.255,0,472V40
	C0,26.745,10.745,16,24,16z"/>
<path style="fill:#FFFFFF;" d="M24,80h464c4.418,0,8,3.582,8,8v384c0,4.418-3.582,8-8,8H24c-4.418,0-8-3.582-8-8V88
	C16,83.582,19.582,80,24,80z"/>
<path style="fill:#ABE1FA;" d="M88,112h336c8.837,0,16,7.163,16,16v224c0,8.837-7.163,16-16,16H88c-8.837,0-16-7.163-16-16V128
	C72,119.163,79.164,112,88,112z"/>
<circle style="fill:#F19F35;" cx="143.995" cy="175.995" r="32"/>
<g>
	<path style="fill:#595A66;" d="M151.2,253.76l-79.2,78.08V352c0,8.837,7.163,16,16,16H275.2l-99.92-114.24
		c-5.82-6.649-15.928-7.322-22.578-1.502C152.169,252.725,151.667,253.227,151.2,253.76z"/>
	<path style="fill:#595A66;" d="M440,352v-27.201L334.56,219.28c-6.245-6.252-16.375-6.257-22.627-0.013
		c-0.004,0.004-0.008,0.008-0.013,0.013L163.2,368h260.801C432.836,368,440,360.837,440,352z"/>
</g>
<g>
	<path style="fill:#35363E;" d="M440,352v-27.201L403.2,288c-4.418-4.418-11.582-4.418-16,0s-4.418,11.582,0,16l9.36,9.36
		c14.494,14.491,22.637,34.145,22.64,54.64H424C432.836,368,440,360.837,440,352z"/>
	<path style="fill:#35363E;" d="M262.56,316.96c-9.663-10.975-25.535-14.005-38.56-7.359l51.2,58.4h32L262.56,316.96z"/>
</g>
<g>
	<path style="fill:#6F707E;" d="M319.528,242.357L319.528,242.357c3.125,3.125,3.125,8.19,0,11.314L296.9,276.297
		c-3.125,3.125-8.189,3.125-11.314,0l0,0c-3.125-3.125-3.125-8.19,0-11.314l22.627-22.627
		C311.339,239.232,316.404,239.232,319.528,242.357z"/>
	<path style="fill:#6F707E;" d="M160.827,275.747L160.827,275.747c3.125,3.125,3.125,8.19,0,11.314l-22.627,22.627
		c-3.125,3.125-8.189,3.125-11.314,0l0,0c-3.125-3.125-3.125-8.19,0-11.314l22.627-22.627
		C152.638,272.623,157.703,272.623,160.827,275.747z"/>
</g>
<g>
	<circle style="fill:#9BA7AF;" cx="24.002" cy="47.995" r="7.998"/>
	<circle style="fill:#9BA7AF;" cx="56.002" cy="47.995" r="7.998"/>
	<circle style="fill:#9BA7AF;" cx="88.002" cy="47.995" r="7.998"/>
</g>
<path style="fill:#E2E5E7;" d="M120,40h368c4.418,0,8,3.582,8,8l0,0c0,4.418-3.582,8-8,8H120c-4.418,0-8-3.582-8-8l0,0
	C112,43.582,115.582,40,120,40z"/>
<g>
	<path style="fill:#CAD1D8;" d="M152.001,392h224c4.418,0,8,3.582,8,8l0,0c0,4.418-3.582,8-8,8H152c-4.418,0-8.001-3.582-8.001-8
		l0,0C144,395.582,147.582,392,152.001,392z"/>
	<path style="fill:#CAD1D8;" d="M152.001,424H288c4.418,0,8,3.582,8,8l0,0c0,4.418-3.582,8-8,8H152.001
		c-4.418,0-8.001-3.582-8.001-8l0,0C144,427.582,147.582,424,152.001,424z"/>
	<circle style="fill:#CAD1D8;" cx="96" cy="416" r="24.002"/>
</g>
<g>
	<path style="fill:#9BA7AF;" d="M464,280c-4.418-0.023-7.982-3.623-7.959-8.041c0.008-1.55,0.466-3.064,1.319-4.359L470.4,248
		l-13.04-19.6c-2.656-3.531-1.947-8.546,1.585-11.202c3.531-2.656,8.546-1.947,11.202,1.585c0.178,0.236,0.342,0.483,0.493,0.737
		l16,24c1.794,2.688,1.794,6.192,0,8.88l-16,24C469.168,278.635,466.676,279.987,464,280z"/>
	<path style="fill:#9BA7AF;" d="M56,216.001c4.418,0.023,7.982,3.623,7.959,8.041c-0.008,1.55-0.466,3.064-1.319,4.359l-13.04,19.6
		l13.04,19.6c2.248,3.803,0.988,8.709-2.815,10.957c-3.509,2.074-8.015,1.179-10.464-2.078l-16-24.001
		c-1.794-2.688-1.794-6.192,0-8.88l16-24.001C50.832,217.365,53.323,216.013,56,216.001z"/>
</g>
<g>
</g>
<g>
</g>
<g>
</g>
<g>
</g>
<g>
</g>
<g>
</g>
<g>
</g>
<g>
</g>
<g>
</g>
<g>
</g>
<g>
</g>
<g>
</g>
<g>
</g>
<g>
</g>
<g>
</g>
</svg>
