<?xml version="1.0" encoding="iso-8859-1"?>
<!-- Generator: Adobe Illustrator 18.0.0, SVG Export Plug-In . SVG Version: 6.00 Build 0)  -->
<!DOCTYPE svg PUBLIC "-//W3C//DTD SVG 1.1//EN" "http://www.w3.org/Graphics/SVG/1.1/DTD/svg11.dtd">
<svg version="1.1" id="Capa_1" xmlns="http://www.w3.org/2000/svg" xmlns:xlink="http://www.w3.org/1999/xlink" x="0px" y="0px"
	 viewBox="0 0 360 360" style="enable-background:new 0 0 360 360;" xml:space="preserve">
<path d="M352.163,163.115L198.919,9.871c-10.449-10.449-27.389-10.449-37.838,0L7.837,163.115c-7.652,7.652-9.94,19.16-5.8,29.158
	c4.142,9.998,13.898,16.516,24.719,16.516h20.762v114.574c0,19.112,15.493,34.603,34.603,34.603h195.758
	c19.11,0,34.603-15.492,34.603-34.603V208.789h20.762c10.821,0,20.578-6.519,24.719-16.516
	C362.103,182.275,359.815,170.767,352.163,163.115z M220.431,307.785h-80.862v-45.583c0-22.33,18.102-40.431,40.431-40.431
	s40.431,18.1,40.431,40.431V307.785z"/>
<g>
</g>
<g>
</g>
<g>
</g>
<g>
</g>
<g>
</g>
<g>
</g>
<g>
</g>
<g>
</g>
<g>
</g>
<g>
</g>
<g>
</g>
<g>
</g>
<g>
</g>
<g>
</g>
<g>
</g>
</svg>
